<svg xmlns="http://www.w3.org/2000/svg" width="150" height="73" fill="none" viewBox="0 0 65.928 32"><g fill="#000" fill-rule="evenodd" clip-path="url(#a)"><path d="M26.706 24.912a.792.792 0 0 0-.05.204c0 .252.139.462.415.63.28.17.572.254.877.254.42 0 .682-.16.785-.482l1.113-3.77h6.657l1.112 3.77c.103.321.356.482.76.482.322 0 .62-.093.897-.278.28-.186.42-.396.42-.63a.344.344 0 0 0-.013-.08.409.409 0 0 1-.012-.1L34.5 8.076c-.148-.49-.587-.736-1.316-.736-.726 0-1.165.245-1.317.736l-5.161 16.836ZM43.529 8.23v17.01c0 .235.105.42.315.556.21.136.457.204.742.204.288 0 .538-.068.748-.204.214-.136.321-.321.321-.556V8.23a.593.593 0 0 0-.321-.544 1.412 1.412 0 0 0-.748-.191 1.4 1.4 0 0 0-.742.191.595.595 0 0 0-.315.544Zm-7.533 11.768h-5.668l2.856-9.518 2.812 9.518Zm-33.77 4.735a.793.793 0 0 0-.13.433c0 .235.152.467.457.698.305.227.583.34.834.34.256 0 .45-.101.581-.303L6.88 21.42l2.942 4.481c.116.202.31.303.581.303.285 0 .571-.117.86-.352.288-.24.432-.468.432-.686a.718.718 0 0 0-.13-.433l-3.288-4.809 3.19-4.61a.75.75 0 0 0 .123-.402c0-.235-.152-.47-.457-.705-.301-.239-.588-.358-.86-.358-.25 0-.436.1-.556.302L6.88 18.51l-2.782-4.36a.637.637 0 0 0-.556-.302c-.289 0-.585.115-.89.346-.301.226-.452.465-.452.717 0 .136.05.27.149.401l3.14 4.611-3.264 4.809Zm12.366 0a.793.793 0 0 0-.13.433c0 .235.153.467.458.698.305.227.583.34.834.34.256 0 .45-.101.581-.303l2.912-4.481 2.942 4.481c.115.202.308.303.58.303.285 0 .571-.117.86-.352.288-.24.432-.468.432-.686a.718.718 0 0 0-.13-.433l-3.288-4.809 3.19-4.61a.75.75 0 0 0 .123-.402c0-.235-.152-.47-.457-.705-.301-.239-.587-.358-.86-.358-.25 0-.436.1-.556.302l-2.836 4.358-2.782-4.358a.637.637 0 0 0-.556-.302c-.289 0-.585.115-.89.346-.301.226-.451.465-.451.717 0 .136.049.27.148.401l3.14 4.611-3.264 4.809ZM61.28 8.252v6.792c0 1.327.73 1.99 2.19 1.99h.408a.444.444 0 0 0 .345-.145.49.49 0 0 0 .132-.341.45.45 0 0 0-.477-.476h-.409c-.403 0-.686-.077-.85-.23-.162-.154-.244-.42-.244-.798v-3.402h1.664a.277.277 0 0 0 .235-.126.483.483 0 0 0 .094-.296.516.516 0 0 0-.094-.306.274.274 0 0 0-.235-.132h-1.664v-2.53c0-.105-.057-.195-.17-.27a.679.679 0 0 0-.754 0c-.114.075-.17.165-.17.27Zm-11.089 5.704c-.525.269-.788.745-.788 1.43 0 .57.164 1.006.492 1.306.33.299.76.448 1.288.448.73 0 1.393-.343 1.99-1.03v.528c0 .113.048.208.144.283a.565.565 0 0 0 .358.113.633.633 0 0 0 .389-.113.34.34 0 0 0 .151-.283v-3.374c0-.73-.205-1.338-.615-1.825-.407-.49-1.042-.734-1.905-.734-.449 0-.873.077-1.272.232-.399.152-.599.33-.599.53 0 .134.037.26.11.38.075.119.175.178.3.178.025 0 .178-.064.46-.19a2.32 2.32 0 0 1 .975-.193c.483 0 .846.163 1.088.489.242.324.364.706.364 1.146v.277h-.634c-1.003 0-1.768.134-2.296.402Zm6.055-2.79v5.472c0 .105.053.197.158.277a.615.615 0 0 0 .38.119c.15 0 .28-.042.39-.126.111-.084.167-.174.167-.27V13.63c0-.57.166-1.037.499-1.397.334-.36.726-.54 1.175-.54h.447a.381.381 0 0 0 .296-.146.505.505 0 0 0 .126-.34.534.534 0 0 0-.126-.352.376.376 0 0 0-.296-.151h-.447c-.378 0-.721.106-1.03.319-.307.21-.54.464-.7.763v-.622a.328.328 0 0 0-.144-.277.581.581 0 0 0-.354-.106.661.661 0 0 0-.39.106.324.324 0 0 0-.15.277Zm-5.46 4.84c-.184-.167-.276-.413-.276-.74a.88.88 0 0 1 .116-.466.868.868 0 0 1 .309-.303 1.56 1.56 0 0 1 .49-.17c.199-.041.391-.068.576-.081.184-.013.403-.02.656-.02h.464v.686c0 .307-.174.608-.522.902-.347.294-.706.44-1.075.44-.307 0-.553-.082-.737-.247Z"/></g><defs><clipPath id="a"><path fill="#fff" d="M0 0h65.928v32H0z"/></clipPath></defs></svg>
